<?xml version="1.0" encoding="UTF-8" standalone="no"?>
<!-- Created with Inkscape (http://www.inkscape.org/) -->

<svg
   version="1.1"
   id="svg1473"
   width="200"
   height="32"
   viewBox="0 0 200 32.000001"
   sodipodi:docname="armbian-logo-text-dark.svg"
   inkscape:version="1.2.2 (b0a8486541, 2022-12-01)"
   xmlns:inkscape="http://www.inkscape.org/namespaces/inkscape"
   xmlns:sodipodi="http://sodipodi.sourceforge.net/DTD/sodipodi-0.dtd"
   xmlns="http://www.w3.org/2000/svg"
   xmlns:svg="http://www.w3.org/2000/svg">
  <defs
     id="defs1477" />
  <sodipodi:namedview
     id="namedview1475"
     pagecolor="#ffffff"
     bordercolor="#000000"
     borderopacity="0.25"
     inkscape:showpageshadow="2"
     inkscape:pageopacity="0.0"
     inkscape:pagecheckerboard="0"
     inkscape:deskcolor="#d1d1d1"
     showgrid="false"
     inkscape:zoom="10.351562"
     inkscape:cx="64.048305"
     inkscape:cy="10.48151"
     inkscape:window-width="6144"
     inkscape:window-height="1662"
     inkscape:window-x="0"
     inkscape:window-y="29"
     inkscape:window-maximized="1"
     inkscape:current-layer="g1479" />
  <g
     inkscape:groupmode="layer"
     inkscape:label="Image"
     id="g1479">
    <g
       id="g1483"
       transform="matrix(1.8054752,0,0,1.8054752,-14.691133,-2.6241849)">
      <path
         style="fill:#fefefe;stroke-width:0.32"
         d="M 11.997489,17.287911 C 12.113401,16.922705 13.577477,13.639523 15.250992,9.9919501 16.924507,6.3443776 18.36906,3.18 18.461109,2.96 c 0.108636,-0.2596405 0.871013,-0.4 2.17264,-0.4 h 2.005276 l 3.400487,7.468138 c 1.870268,4.107476 3.400488,7.563476 3.400488,7.68 0,0.116524 -0.86068,0.211862 -1.912623,0.211862 -2.148318,0 -2.339872,-0.168137 -3.372256,-2.96 -0.309139,-0.836 -0.662507,-1.52 -0.785262,-1.52 -0.122756,0 -0.223192,-0.199911 -0.223192,-0.444247 0,-0.36217 -2.230069,-5.8947952 -2.501353,-6.2056586 -0.213474,-0.2446195 -2.699599,6.1164476 -2.515937,6.4373446 0.117277,0.204909 0.09357,0.263983 -0.05269,0.131276 -0.146258,-0.132707 -0.716719,0.803293 -1.267692,2.08 L 15.807225,17.76 13.796983,17.85596 c -1.907978,0.09108 -1.999522,0.06218 -1.799494,-0.568049 z M 30.4,10.24 V 2.56 h 4.74967 c 4.353268,0 4.867373,0.062094 6.16,0.744007 3.364986,1.7751671 3.860605,6.5012231 0.939543,8.959135 l -1.037808,0.87326 1.653449,2.391799 L 44.518304,17.92 42.339152,17.9151 40.16,17.910135 38.72,15.84 C 37.292682,13.788094 37.266614,13.769821 35.76,13.764932 L 34.24,13.76 v 2.08 2.08 H 32.32 30.4 Z m 8.465664,0.121222 C 39.64689,10.061437 40.364134,8.447263 40.130224,7.515296 39.805744,6.2224608 38.825274,5.76 36.408797,5.76 H 34.24 v 2.4 2.4 h 2.053827 c 1.129607,0 2.286931,-0.08945 2.571837,-0.198778 z M 45.12,10.24 V 2.56 h 1.706426 1.706425 l 2.661271,3.8505926 c 1.463699,2.117826 2.75231,3.9068574 2.86358,3.9756264 0.111268,0.06877 1.413229,-1.6639985 2.893242,-3.8505928 L 59.641882,2.56 H 61.340941 63.04 v 7.68 7.68 h -1.581114 c -0.869612,0 -1.678054,-0.156851 -1.796537,-0.348558 -0.11848,-0.191707 -0.306979,-2.017102 -0.418883,-4.056434 L 59.04,9.8071334 57.12,12.983567 C 55.275722,16.034729 55.15583,16.16 54.08,16.16 c -1.070461,0 -1.204925,-0.1369 -3.04,-3.095034 L 49.12,9.9699315 49.040861,13.224966 C 48.924573,18.007909 48.965146,17.92 46.873904,17.92 H 45.12 Z m 19.2,0 V 2.56 h 4.655891 c 4.870531,0 5.752925,0.1953562 6.973287,1.5438426 0.909036,1.0044748 1.202627,2.8346998 0.69232,4.3158816 -0.403396,1.1708604 -0.384455,1.3374476 0.249561,2.1949998 0.936919,1.267251 0.95513,4.042079 0.03477,5.297118 -1.264666,1.724536 -2.35207,2.007113 -7.725824,2.007661 L 64.32,17.92 Z m 8.655456,3.986012 C 73.775114,13.502333 73.769587,12.649588 72.96,11.84 72.451283,11.331282 71.893334,11.2 70.24,11.2 h -2.08 v 1.963811 1.963812 l 2.095456,-0.168203 c 1.363603,-0.109457 2.313584,-0.365605 2.72,-0.733408 z M 72.248797,8.4618547 c 0.810723,-0.5678528 0.936665,-1.7963731 0.243158,-2.3719334 -0.257424,-0.2136435 -1.337424,-0.4672755 -2.4,-0.5636266 L 68.16,5.3511114 V 7.1555555 8.96 h 1.688797 c 1.010585,0 1.974416,-0.2000528 2.4,-0.4981453 z M 78.4,10.24 V 2.56 h 1.92 1.92 v 7.68 7.68 H 80.32 78.4 Z M 84.705808,14 c 0.980851,-2.156 2.532717,-5.576 3.448589,-7.6 L 89.819613,2.72 91.869808,2.6272217 93.92,2.5344434 97.28,9.924863 c 1.848,4.064731 3.408,7.526481 3.46667,7.692779 0.0594,0.168283 -0.753272,0.302358 -1.832625,0.302358 -2.348416,0 -2.138247,0.267839 -4.833671,-6.16 -1.088598,-2.596 -2.08174,-4.72 -2.206985,-4.72 -0.125248,0 -1.207981,2.34 -2.406077,5.2 -1.198096,2.86 -2.342371,5.305795 -2.542835,5.4351 -0.200461,0.129305 -1.182928,0.237305 -2.183258,0.24 L 82.922438,17.92 Z M 101.76,10.255969 V 2.56 l 1.68,0.014637 1.68,0.014637 3.6,4.3282599 3.6,4.3282601 V 6.9028973 2.56 h 1.92 1.92 v 7.696723 7.696723 l -1.6706,-0.09672 -1.6706,-0.09672 -3.60014,-4.236221 -3.60014,-4.2362206 -0.0893,4.2362206 -0.0893,4.236221 -1.84,0.09597 -1.84,0.09597 z"
         id="path1489" />
      <path
         style="fill:#f73427;stroke-width:0.32"
         d="m 19.432863,13.209046 c 0.568074,-0.07069 1.576074,-0.07185 2.24,-0.0026 0.663925,0.06928 0.199137,0.127121 -1.032863,0.128541 -1.232,0.0014 -1.775212,-0.05526 -1.207137,-0.125949 z M 90.64,13.20689 c 0.66,-0.06904 1.74,-0.06904 2.4,0 0.66,0.06904 0.12,0.125524 -1.2,0.125524 -1.32,0 -1.86,-0.05649 -1.2,-0.125524 z"
         id="path1487" />
      <path
         style="fill:#f60f00;stroke-width:0.32"
         d="M 19.561577,15.340673 18.516677,13.44 h 2.109879 2.109879 l -0.516401,0.99861 c -0.284021,0.549236 -0.763261,1.404539 -1.064979,1.900674 l -0.548577,0.902063 z m 71.358055,0.1513 c -0.548448,-1.012601 -0.942426,-1.895846 -0.875507,-1.962766 0.06692,-0.06692 0.981456,-0.07837 2.032304,-0.02544 l 1.910627,0.09623 -1.035123,1.866533 -1.03512,1.866534 z"
         id="path1485" />
    </g>
  </g>
</svg>
