<?xml version="1.0" encoding="UTF-8" standalone="no"?>
<!-- Created with Inkscape (http://www.inkscape.org/) -->

<svg
   version="1.1"
   id="svg199"
   width="200"
   height="32"
   viewBox="0 0 200 32.000001"
   sodipodi:docname="armbian-logo-text.svg"
   inkscape:version="1.2.2 (b0a8486541, 2022-12-01)"
   xmlns:inkscape="http://www.inkscape.org/namespaces/inkscape"
   xmlns:sodipodi="http://sodipodi.sourceforge.net/DTD/sodipodi-0.dtd"
   xmlns="http://www.w3.org/2000/svg"
   xmlns:svg="http://www.w3.org/2000/svg">
  <defs
     id="defs203" />
  <sodipodi:namedview
     id="namedview201"
     pagecolor="#ffffff"
     bordercolor="#000000"
     borderopacity="0.25"
     inkscape:showpageshadow="2"
     inkscape:pageopacity="0.0"
     inkscape:pagecheckerboard="0"
     inkscape:deskcolor="#d1d1d1"
     showgrid="false"
     inkscape:zoom="2"
     inkscape:cx="45.5"
     inkscape:cy="38.5"
     inkscape:window-width="3662"
     inkscape:window-height="1397"
     inkscape:window-x="1140"
     inkscape:window-y="237"
     inkscape:window-maximized="0"
     inkscape:current-layer="g205" />
  <g
     inkscape:groupmode="layer"
     inkscape:label="Image"
     id="g205">
    <g
       id="g1371"
       transform="matrix(1.7607293,0,0,1.7607293,-10.70488,-2.2445666)">
      <path
         style="fill:#cdcdcd;stroke-width:0.32"
         d="m 20.352962,17.333333 c -0.09065,-0.146666 0.03852,-0.266666 0.287038,-0.266666 0.248516,0 0.377683,0.12 0.287038,0.266666 C 20.836393,17.48 20.707226,17.6 20.64,17.6 c -0.06723,0 -0.196393,-0.12 -0.287038,-0.266667 z M 105.40626,13.28 c 6.4e-4,-2.464 0.0507,-3.4296998 0.11162,-2.146 0.0609,1.2837 0.0605,3.2997 -9.6e-4,4.48 -0.0613,1.1803 -0.11116,0.13 -0.11066,-2.334 z M 48.64,13.12 c 0,-2.170667 0.08951,-3.85716 0.198902,-3.7477629 0.220932,0.2209287 0.166916,7.3286129 -0.0574,7.5529249 C 48.703677,17.00299 48.64,15.290667 48.64,13.12 Z m 27.2,3.719182 c 0,-0.06645 0.252,-0.31845 0.56,-0.56 C 76.907539,15.881144 76.918858,15.892462 76.520819,16.4 76.102781,16.933039 75.84,17.102553 75.84,16.839182 Z m 1.625264,-3.585849 c 0.01536,-0.372781 0.09118,-0.448608 0.193331,-0.193333 0.09244,0.231 0.08107,0.507 -0.02525,0.613333 -0.106336,0.106334 -0.181965,-0.08267 -0.16807,-0.42 z M 112.44716,7.04 c 0,-2.552 0.0497,-3.596 0.11044,-2.32 0.0607,1.276 0.0607,3.364 0,4.64 -0.0607,1.276 -0.11044,0.232 -0.11044,-2.32 z m -77.321429,3.608086 c 0.575152,-0.07122 1.439152,-0.06975 1.92,0.0033 0.480848,0.07302 0.01027,0.131286 -1.045731,0.12949 -1.056,-0.0018 -1.449421,-0.06154 -0.874269,-0.132756 z M 37.38,5.5414035 c 0.230998,-0.092439 0.506998,-0.08107 0.613334,0.025264 0.106333,0.1063335 -0.08267,0.1819651 -0.42,0.1680704 C 37.20055,5.7193843 37.124726,5.6435568 37.38,5.5414045 Z"
         id="path1385" />
      <path
         style="fill:#9a9a9a;stroke-width:0.32"
         d="m 34.025005,15.84 c 0.0013,-1.232 0.05926,-1.696788 0.128531,-1.032863 0.06927,0.663926 0.06811,1.671926 -0.0026,2.24 C 34.080262,17.615212 34.023584,17.072 34.025005,15.84 Z M 68.88,10.970799 c 0.484,-0.07332 1.276,-0.07332 1.76,0 0.484,0.07332 0.088,0.133309 -0.88,0.133309 -0.968,0 -1.364,-0.05999 -0.88,-0.133309 z M 34.029699,8.16 c 0.0013,-1.408 0.05742,-1.9441936 0.125021,-1.1915414 0.0676,0.7526521 0.06665,1.9046521 -0.0022,2.56 C 34.083846,10.183806 34.028538,9.568 34.029699,8.16 Z"
         id="path1383" />
      <path
         style="fill:#6f6f6f;stroke-width:0.32"
         d="m 45.258381,10.24 c 0,-4.312 0.0453,-6.076 0.100659,-3.92 0.05536,2.156 0.05536,5.684 0,7.84 -0.05536,2.156 -0.100659,0.392 -0.100659,-3.92 z M 34.9644,13.530374 c 0.486419,-0.07355 1.206419,-0.07159 1.6,0.0044 0.393581,0.07596 -0.0044,0.136136 -0.8844,0.133734 -0.88,-0.0024 -1.202019,-0.06455 -0.7156,-0.138102 z M 62.850269,7.68 c 0,-2.904 0.04851,-4.092 0.107808,-2.64 0.05929,1.452 0.05929,3.828 0,5.28 -0.0593,1.452 -0.107808,0.264 -0.107808,-2.64 z M 67.939158,7.2 c 0.0019,-1.056 0.06154,-1.4494211 0.132756,-0.8742691 0.07122,0.575152 0.06975,1.439152 -0.0033,1.92 C 67.995632,8.7265789 67.937363,8.256 67.939158,7.2 Z M 43.890525,8 c 0,-0.44 0.07263,-0.62 0.161405,-0.4 0.08877,0.22 0.08877,0.58 0,0.8 C 43.96316,8.62 43.890525,8.44 43.890525,8 Z"
         id="path1381" />
      <path
         style="fill:#f61b0c;stroke-width:0.32"
         d="M 20.145687,16.594355 C 19.929205,16.17946 19.398182,15.228 18.965635,14.48 l -0.786449,-1.36 h 2.453892 2.453892 l -1.031496,1.84 c -1.368254,2.440714 -1.451762,2.512178 -1.909787,1.634355 z M 90.757616,15.380879 C 90.120928,14.294537 89.6,13.341426 89.6,13.262856 89.6,13.184285 90.608,13.12 91.84,13.12 c 1.232,0 2.24,0.07679 2.24,0.170638 0,0.19847 -1.43488,2.982507 -1.869536,3.627386 -0.220909,0.327748 -0.586672,-0.05924 -1.452848,-1.537145 z"
         id="path1379" />
      <path
         style="fill:#515151;stroke-width:0.32"
         d="m 62.831811,15.36 c 0,-1.496 0.05512,-2.108 0.122496,-1.36 0.06737,0.748 0.06737,1.972 0,2.72 -0.06737,0.748 -0.122496,0.136 -0.122496,-1.36 z m 1.62657,-5.12 c 0,-4.312 0.0453,-6.076 0.100659,-3.92 0.05536,2.156 0.05536,5.684 0,7.84 -0.05536,2.156 -0.100659,0.392 -0.100659,-3.92 z m 14.08,0 c 0,-4.312 0.0453,-6.076 0.100659,-3.92 0.05536,2.156 0.05536,5.684 0,7.84 -0.05536,2.156 -0.100659,0.392 -0.100659,-3.92 z m 3.519241,0 c 0,-4.136 0.0456,-5.828 0.101344,-3.76 0.05574,2.068 0.05574,5.452 0,7.52 -0.05574,2.068 -0.101344,0.376 -0.101344,-3.76 z m -14.1152,2.88 c 0,-1.144 0.05808,-1.612 0.129066,-1.04 0.07098,0.572 0.07098,1.508 0,2.08 -0.07099,0.572 -0.129066,0.104 -0.129066,-1.04 z M 68.8844,9.0503741 c 0.486419,-0.073554 1.206419,-0.071588 1.6,0.00437 0.393581,0.075956 -0.0044,0.1361357 -0.8844,0.1337334 -0.88,-0.0024 -1.202019,-0.064548 -0.7156,-0.1381014 z"
         id="path1377" />
      <path
         style="fill:#2e2e2e;stroke-width:0.32"
         d="m 30.538382,10.24 c 0,-4.312 0.0453,-6.076 0.100658,-3.92 0.05536,2.156 0.05536,5.684 0,7.84 -0.05536,2.156 -0.100658,0.392 -0.100658,-3.92 z M 75.84,16.519182 c 0,-0.06645 0.252,-0.31845 0.56,-0.56 0.507539,-0.398038 0.518858,-0.38672 0.120819,0.120818 C 76.102781,16.613039 75.84,16.782553 75.84,16.519182 Z M 75.969597,10.16 75.36,9.44 l 0.72,0.609596 c 0.676621,0.57287 0.865677,0.830404 0.609597,0.830404 -0.06072,0 -0.384723,-0.324 -0.72,-0.72 z"
         id="path1375" />
      <path
         style="fill:#000000;stroke-width:0.32"
         d="m 12.16,17.703601 c 0,-0.11902 1.534235,-3.57502 3.40941,-7.68 L 18.97882,2.56 h 1.661617 1.661616 l 3.230803,7.12 c 1.776941,3.916 3.326386,7.372 3.44321,7.68 0.180267,0.475265 0.02565,0.556597 -1.02183,0.537509 -0.67883,-0.01237 -1.503451,-0.128294 -1.832493,-0.257608 -0.393669,-0.154712 -1.357,-2.034707 -2.816987,-5.497508 C 22.084455,9.2480768 20.972367,6.765897 20.833451,6.6264378 20.428921,6.2203277 20.053458,6.9188774 17.945219,12 16.84984,14.64 15.660104,17.052 15.30136,17.36 14.676763,17.896248 12.16,18.171531 12.16,17.703601 Z M 30.72,10.195243 V 2.470485 l 4.441859,0.1597411 c 3.908291,0.1405527 4.608317,0.2516367 5.827613,0.9247576 0.762166,0.420759 1.715331,1.2543113 2.118144,1.8523389 1.420138,2.1083836 0.722522,5.5186334 -1.421824,6.9505054 -1.020592,0.681492 -1.026694,0.700539 -0.463427,1.446379 0.313929,0.415686 1.115587,1.511793 1.781462,2.435793 L 44.214509,17.92 42.347254,17.90636 40.48,17.892718 38.954627,15.666359 37.429254,13.44 H 35.674627 33.92 v 2.24 2.24 h -1.6 -1.6 z m 8.814157,-0.04625 C 40.185862,9.5884192 40.384,9.1246957 40.384,8.16 40.384,7.1953043 40.185862,6.7315808 39.534157,6.1710054 38.813632,5.5512374 38.321818,5.44 36.302157,5.44 H 33.92 v 2.72 2.72 h 2.382157 c 2.019661,0 2.511475,-0.111237 3.232,-0.731005 z M 45.44,10.24 V 2.56 L 46.8,2.56928 48.16,2.57856 51.152723,6.9023459 54.14545,11.226128 57.072723,6.9038496 60,2.581571 61.36,2.5707855 62.72,2.56 v 7.68 7.68 h -1.097142 c -1.895344,0 -2.101575,-0.494133 -2.113034,-5.062857 C 59.49808,8.1751418 59.660986,8.1644003 56.736573,13.04 55.189411,15.619438 54.848586,16 54.085658,16 53.315331,16 52.945286,15.570174 51.005085,12.421759 L 48.8,8.8435181 48.71,12.961024 c -0.05174,2.366757 -0.238474,4.296401 -0.439181,4.538241 -0.192054,0.231404 -0.907552,0.420735 -1.59,0.420735 H 45.44 Z m 19.2,-7.36e-4 V 2.4873649 l 4.4,0.1322592 c 3.353709,0.1008088 4.646589,0.2632155 5.436986,0.6829733 2.008598,1.0667092 2.767366,3.4118976 1.744569,5.3920743 l -0.606745,1.1746781 0.832595,0.8332152 c 0.699056,0.699575 0.829904,1.112965 0.815817,2.577399 -0.01341,1.394671 -0.173724,1.912176 -0.8,2.582512 C 74.948736,17.483515 74.084557,17.721283 69.2,17.86086 l -4.56,0.13031 V 10.239271 Z M 73.28,14.4 C 74.173069,13.506931 74.090102,12.340254 73.076845,11.543226 72.409818,11.018541 71.77479,10.88 70.036845,10.88 H 67.84 v 2.08 2.08 h 2.4 c 1.973334,0 2.513779,-0.113778 3.04,-0.64 z M 72.101037,8.9120947 C 73.399699,8.2285318 73.667392,7.038456 72.750403,6.0251971 72.3356,5.5668422 71.746035,5.44 70.030403,5.44 H 67.84 v 1.92 1.92 h 1.781037 c 0.979571,0 2.095571,-0.1655574 2.48,-0.3679053 z M 78.72,10.24 V 2.56 h 1.6 1.6 v 7.68 7.68 h -1.6 -1.6 z m 8.001635,0.08 3.459879,-7.6 L 91.890758,2.631929 93.6,2.5438577 96.96,9.9449779 c 1.848,4.0706161 3.408,7.5302481 3.46667,7.6880711 C 100.58996,18.072332 97.792272,17.974144 97.205552,17.52 96.921328,17.3 95.724413,14.816 94.545738,12 93.367066,9.184 92.298787,6.765897 92.171786,6.6264378 c -0.38226,-0.4197584 -0.800074,0.3494441 -3.055031,5.6243502 -1.22167,2.857796 -2.410006,5.185045 -2.736915,5.36 C 86.06207,17.780855 85.230502,17.92 84.531917,17.92 h -1.27016 z M 101.76,10.256723 V 2.56 h 1.4065 1.4065 L 108.5265,7.2560749 112.48,11.95215 112.5685,7.2560749 112.65711,2.56 h 1.75144 1.75145 v 7.68 7.68 h -1.09383 c -0.6016,0 -1.30699,-0.0818 -1.56753,-0.181777 -0.26054,-0.09998 -2.09514,-2.115978 -4.0769,-4.48 C 107.43999,10.8942 105.70144,8.96 105.55831,8.96 c -0.14314,0 -0.30031,1.98 -0.34928,4.4 l -0.089,4.4 -1.68,0.09672 -1.68,0.09672 z"
         id="path1373" />
    </g>
  </g>
</svg>
