<?xml version="1.0" encoding="UTF-8" standalone="no"?>
<!-- Created with Inkscape (http://www.inkscape.org/) -->

<svg
   version="1.1"
   id="svg141"
   width="1600"
   height="1600"
   viewBox="0 0 1600 1600"
   sodipodi:docname="Logo-Transparency4.svg"
   inkscape:version="1.2.2 (b0a8486541, 2022-12-01)"
   inkscape:export-filename="Logo-Transparency4.svg"
   inkscape:export-xdpi="96"
   inkscape:export-ydpi="96"
   xmlns:inkscape="http://www.inkscape.org/namespaces/inkscape"
   xmlns:sodipodi="http://sodipodi.sourceforge.net/DTD/sodipodi-0.dtd"
   xmlns="http://www.w3.org/2000/svg"
   xmlns:svg="http://www.w3.org/2000/svg">
  <defs
     id="defs145" />
  <sodipodi:namedview
     id="namedview143"
     pagecolor="#ffffff"
     bordercolor="#000000"
     borderopacity="0.25"
     inkscape:showpageshadow="2"
     inkscape:pageopacity="0.0"
     inkscape:pagecheckerboard="0"
     inkscape:deskcolor="#d1d1d1"
     showgrid="false"
     inkscape:zoom="0.641875"
     inkscape:cx="415.18987"
     inkscape:cy="804.67381"
     inkscape:window-width="6144"
     inkscape:window-height="1662"
     inkscape:window-x="0"
     inkscape:window-y="29"
     inkscape:window-maximized="1"
     inkscape:current-layer="g147" />
  <g
     inkscape:groupmode="layer"
     inkscape:label="Image"
     id="g147">
    <g
       id="g986"
       transform="translate(1.3868878,-0.9160794)">
      <path
         style="fill:#d8d8d8;stroke-width:0.32"
         d="m 604.16,894.59917 c 0,-0.0664 0.252,-0.31843 0.56,-0.56 0.50755,-0.39802 0.51885,-0.38672 0.12083,0.12083 -0.41805,0.53302 -0.68083,0.70256 -0.68083,0.43917 z m 605.7428,-2.67917 -1.1028,-1.2 1.2,1.10278 c 0.66,0.60653 1.2,1.14653 1.2,1.2 0,0.24436 -0.2708,0.0141 -1.2972,-1.10278 z M 951.68,879.84 c 0.41334,-0.44 0.82355,-0.8 0.91155,-0.8 0.088,0 -0.17821,0.36 -0.59155,0.8 -0.41334,0.44 -0.82355,0.8 -0.91155,0.8 -0.088,0 0.17821,-0.36 0.59155,-0.8 z m 2.24,-2.24 c 0.41334,-0.44 0.82355,-0.8 0.91155,-0.8 0.088,0 -0.17821,0.36 -0.59155,0.8 -0.41334,0.44 -0.82355,0.8 -0.91155,0.8 -0.088,0 0.17821,-0.36 0.59155,-0.8 z m -291.22422,-5.84 -0.77578,-0.88 0.88,0.77578 c 0.8225,0.72508 1.02675,0.98422 0.77578,0.98422 -0.0573,0 -0.45332,-0.396 -0.88,-0.88 z M 955.79917,802 c -0.39802,-0.50755 -0.38672,-0.51885 0.12083,-0.12083 0.53302,0.41805 0.70256,0.68083 0.43917,0.68083 -0.0664,0 -0.31843,-0.252 -0.56,-0.56 z M 494.4,797.63917 c 0,-0.0664 0.252,-0.31843 0.56,-0.56 0.50755,-0.39802 0.51885,-0.38672 0.12083,0.12083 -0.41805,0.53302 -0.68083,0.70256 -0.68083,0.43917 z m 1.76,-1.79917 c 0.31856,-0.352 0.6512,-0.64 0.7392,-0.64 0.088,0 -0.10064,0.288 -0.4192,0.64 -0.31856,0.352 -0.6512,0.64 -0.7392,0.64 -0.088,0 0.10064,-0.288 0.4192,-0.64 z M 908.77578,746.96 908,746.08 l 0.88,0.77578 c 0.8225,0.72508 1.02675,0.98422 0.77578,0.98422 -0.0573,0 -0.45332,-0.396 -0.88,-0.88 z m -379.53661,-24 c -0.39802,-0.50755 -0.38672,-0.51885 0.12083,-0.12083 0.308,0.24157 0.56,0.49357 0.56,0.56 0,0.26339 -0.26278,0.0938 -0.68083,-0.43917 z m 415.8688,-2.72 -1.58797,-1.68 1.68,1.58797 c 1.56109,1.47558 1.82675,1.77203 1.58797,1.77203 -0.0506,0 -0.80663,-0.756 -1.68,-1.68 z"
         id="path1000" />
      <path
         style="fill:#b6b6b6;stroke-width:0.32"
         d="m 903.92,897.70806 c 0.22,-0.0888 0.58,-0.0888 0.8,0 0.22,0.0888 0.04,0.16141 -0.4,0.16141 -0.44,0 -0.62,-0.0726 -0.4,-0.16141 z M 380.63923,799.84 v -97.6 l 44.64,-0.003 44.64,-0.003 -44.55949,0.0828 -44.55948,0.0828 -0.0813,97.51888 -0.0813,97.51888 v -97.6 z m 45.43367,70.72 c 3e-5,-14.96 0.0392,-21.03322 0.087,-13.496 0.0478,7.53718 0.0478,19.77718 -7e-5,27.2 -0.0478,7.42278 -0.087,1.256 -0.087,-13.704 z M 1026.398,800 c 0,-53.768 0.037,-75.764 0.082,-48.88 0.045,26.884 0.045,70.876 0,97.76 -0.045,26.884 -0.082,4.888 -0.082,-48.88 z m 424.96,0 c 0,-53.768 0.037,-75.764 0.082,-48.88 0.045,26.884 0.045,70.876 0,97.76 -0.045,26.884 -0.082,4.888 -0.082,-48.88 z m -365.278,92 c 0.4133,-0.44 0.8236,-0.8 0.9116,-0.8 0.088,0 -0.1783,0.36 -0.5916,0.8 -0.4133,0.44 -0.8236,0.8 -0.9116,0.8 -0.088,0 0.1783,-0.36 0.5916,-0.8 z m 230.5562,-54.72 c 0,-28.688 0.038,-40.37664 0.084,-25.97475 0.046,14.40185 0.046,37.87385 0,52.16 -0.046,14.28611 -0.084,2.50275 -0.084,-26.18525 z m -572.8171,40.8 c 0,-4.488 0.045,-6.324 0.1,-4.08 0.055,2.244 0.055,5.916 0,8.16 -0.055,2.244 -0.1,0.408 -0.1,-4.08 z M 675.12,877.21418 c 0.396,-0.0763 1.044,-0.0763 1.44,0 0.396,0.0762 0.072,0.13865 -0.72,0.13865 -0.792,0 -1.116,-0.0624 -0.72,-0.13865 z M 688.48,872 c 0.31856,-0.352 0.6512,-0.64 0.7392,-0.64 0.088,0 -0.10064,0.288 -0.4192,0.64 -0.31856,0.352 -0.6512,0.64 -0.7392,0.64 -0.088,0 0.10064,-0.288 0.4192,-0.64 z m 203.6,-11.09194 c 0.22,-0.0888 0.58,-0.0888 0.8,0 0.22,0.0888 0.04,0.16141 -0.4,0.16141 -0.44,0 -0.62,-0.0726 -0.4,-0.16141 z M 968.39424,841.6 c 0,-0.616 0.0659,-0.868 0.14634,-0.56 0.0805,0.308 0.0805,0.812 0,1.12 -0.0805,0.308 -0.14634,0.056 -0.14634,-0.56 z m 0,-6.08 c 0,-0.616 0.0659,-0.868 0.14634,-0.56 0.0805,0.308 0.0805,0.812 0,1.12 -0.0805,0.308 -0.14634,0.056 -0.14634,-0.56 z m -182.0081,-16.8 c -9e-5,-7.216 0.042,-10.21363 0.0934,-6.66144 0.0515,3.55222 0.0515,9.45622 1.6e-4,13.12 -0.0514,3.66381 -0.0935,0.75744 -0.0936,-6.45856 z M 893.7,810.34141 c 0.23101,-0.0924 0.50701,-0.0811 0.61334,0.0253 0.10634,0.10633 -0.0827,0.18198 -0.42,0.16809 -0.3728,-0.0154 -0.4486,-0.0912 -0.19334,-0.19334 z M 426.06752,806.96 c -0.0838,-0.22 -0.11462,-15.592 -0.0685,-34.16 l 0.0839,-33.76 0.0785,33.99757 0.0785,33.9976 19.92,0.0849 19.92,0.0849 -19.93005,0.0775 c -15.70688,0.0611 -19.96233,-0.007 -20.08243,-0.32246 z m 527.99741,-6.72 -1.26493,-1.36 1.36,1.26493 c 1.2648,1.17638 1.50704,1.45507 1.26493,1.45507 -0.0523,0 -0.66426,-0.612 -1.36,-1.36 z M 947.04,793.28 c 0.31856,-0.352 0.6512,-0.64 0.7392,-0.64 0.088,0 -0.10064,0.288 -0.4192,0.64 -0.31856,0.352 -0.6512,0.64 -0.7392,0.64 -0.088,0 0.10064,-0.288 0.4192,-0.64 z m -96.64822,-31.36 c 0,-12.76 0.0396,-17.98 0.0881,-11.6 0.0485,6.38 0.0485,16.82 0,23.2 -0.0485,6.38 -0.0881,1.16 -0.0881,-11.6 z M 887.62,784.74141 c 0.23101,-0.0924 0.50701,-0.0811 0.61334,0.0253 0.10634,0.10633 -0.0827,0.18198 -0.42,0.16809 -0.3728,-0.0154 -0.4486,-0.0912 -0.19334,-0.19334 z M 550.13053,778.24 c 0,-0.44 0.0726,-0.62 0.16141,-0.4 0.0888,0.22 0.0888,0.58 0,0.8 -0.0888,0.22 -0.16141,0.04 -0.16141,-0.4 z m -46.10528,-0.82666 c 0.0154,-0.3728 0.0912,-0.4486 0.19334,-0.19334 0.0924,0.23101 0.0811,0.50701 -0.0253,0.61334 -0.10633,0.10634 -0.18198,-0.0827 -0.16809,-0.42 z M 908.96,776.64 c 0.31856,-0.352 0.6512,-0.64 0.7392,-0.64 0.088,0 -0.10064,0.288 -0.4192,0.64 -0.31856,0.352 -0.6512,0.64 -0.7392,0.64 -0.088,0 0.10064,-0.288 0.4192,-0.64 z m -404.93475,-7.54666 c 0.0154,-0.3728 0.0912,-0.4486 0.19334,-0.19334 0.0924,0.23101 0.0811,0.50701 -0.0253,0.61334 -0.10633,0.10634 -0.18198,-0.0827 -0.16809,-0.42 z M 550.13053,768.32 c 0,-0.44 0.0726,-0.62 0.16141,-0.4 0.0888,0.22 0.0888,0.58 0,0.8 -0.0888,0.22 -0.16141,0.04 -0.16141,-0.4 z m 365.16099,-6.24 c 0.003,-0.88 0.0645,-1.20202 0.13811,-0.71562 0.0735,0.48644 0.0716,1.20644 -0.004,1.6 -0.0759,0.3936 -0.13613,-0.004 -0.13373,-0.88438 z m 44.45085,-0.96 c 0.006,-0.528 0.0782,-0.70525 0.15939,-0.39392 0.0811,0.31136 0.0758,0.74336 -0.0118,0.96 -0.0876,0.21667 -0.15402,-0.0381 -0.14752,-0.56608 z m 0.0118,-5.92 c 0,-0.616 0.0659,-0.868 0.14633,-0.56 0.0805,0.308 0.0805,0.812 0,1.12 -0.0805,0.308 -0.14633,0.056 -0.14633,-0.56 z m -464.09847,-5.36 -0.77577,-0.88 0.88,0.77578 c 0.82249,0.72508 1.02675,0.98422 0.77577,0.98422 -0.0573,0 -0.45331,-0.396 -0.88,-0.88 z m -24.99577,-10.21859 c 0.23101,-0.0924 0.50701,-0.0811 0.61334,0.0253 0.10634,0.10633 -0.0827,0.18198 -0.42,0.16809 -0.3728,-0.0154 -0.44861,-0.0912 -0.19334,-0.19334 z m -5.78,-0.32723 c 0.396,-0.0763 1.044,-0.0763 1.44,0 0.396,0.0763 0.072,0.13865 -0.72,0.13865 -0.792,0 -1.116,-0.0624 -0.72,-0.13865 z m 422.74,-0.31277 c 0.23101,-0.0924 0.50701,-0.0811 0.61334,0.0253 0.10634,0.10633 -0.0827,0.18198 -0.42,0.16809 -0.3728,-0.0154 -0.44861,-0.0912 -0.19334,-0.19334 z M 531.66995,725.36 l -1.90998,-2 2,1.90998 c 1.85782,1.77421 2.14643,2.09002 1.90998,2.09002 -0.0495,0 -0.9495,-0.9 -2,-2 z m 254.39571,-10.48 c 0,-6.952 0.0423,-9.796 0.094,-6.32 0.0516,3.476 0.0516,9.164 0,12.64 -0.0517,3.476 -0.094,0.632 -0.094,-6.32 z M 475.46,702.50141 c 0.23101,-0.0924 0.50701,-0.0811 0.61334,0.0253 0.10634,0.10633 -0.0827,0.18198 -0.42,0.16809 -0.3728,-0.0154 -0.4486,-0.0912 -0.19334,-0.19334 z m 427.84,0 c 0.23101,-0.0924 0.50701,-0.0811 0.61334,0.0253 0.10634,0.10633 -0.0827,0.18198 -0.42,0.16809 -0.3728,-0.0154 -0.4486,-0.0912 -0.19334,-0.19334 z m -4.5,-0.31335 c 0.22,-0.0888 0.58,-0.0888 0.8,0 0.22,0.0888 0.04,0.16141 -0.4,0.16141 -0.44,0 -0.62,-0.0726 -0.4,-0.16141 z"
         id="path998" />
      <path
         style="fill:#fa877f;stroke-width:0.32"
         d="m 227.51995,837.36 c 3e-5,-0.132 13.71605,-0.20595 30.48005,-0.16435 16.764,0.0416 25.584,0.11344 19.6,0.15961 -28.52438,0.22004 -50.0801,0.22208 -50.08005,0.005 z m 921.12005,0.08 -30.4,-0.16486 30.48,-0.0776 c 20.1584,-0.0513 30.48,0.0307 30.48,0.24243 0,0.176 -0.036,0.28509 -0.08,0.24243 -0.044,-0.0426 -13.76,-0.15174 -30.48,-0.24243 z"
         id="path996" />
      <path
         style="fill:#757575;stroke-width:0.32"
         d="m 182.98,897.70141 c 0.231,-0.0924 0.507,-0.0811 0.61333,0.0253 0.10634,0.10633 -0.0827,0.18198 -0.42,0.16809 -0.37278,-0.0154 -0.4486,-0.0912 -0.19333,-0.19334 z m 148.48,0 c 0.23101,-0.0924 0.50701,-0.0811 0.61334,0.0253 0.10634,0.10633 -0.0827,0.18198 -0.42,0.16809 -0.3728,-0.0154 -0.4486,-0.0912 -0.19334,-0.19334 z m 570.7,-0.003 c 0.308,-0.0805 0.812,-0.0805 1.12,0 0.308,0.0805 0.056,0.14633 -0.56,0.14633 -0.616,0 -0.868,-0.0659 -0.56,-0.14633 z m 320.18,0.003 c 0.231,-0.0924 0.507,-0.0811 0.6133,0.0253 0.1064,0.10633 -0.083,0.18198 -0.42,0.16809 -0.3728,-0.0154 -0.4486,-0.0912 -0.1933,-0.19334 z m 199.36,0 c 0.231,-0.0924 0.507,-0.0811 0.6133,0.0253 0.1064,0.10633 -0.083,0.18198 -0.42,0.16809 -0.3728,-0.0154 -0.4486,-0.0912 -0.1933,-0.19334 z M 565.91795,800 c 0,-53.768 0.0369,-75.764 0.082,-48.88 0.0451,26.884 0.0451,70.876 0,97.76 -0.0452,26.884 -0.082,4.888 -0.082,-48.88 z m 239.04,0 c 0,-53.768 0.0369,-75.764 0.082,-48.88 0.0451,26.884 0.0451,70.876 0,97.76 -0.0451,26.884 -0.082,4.888 -0.082,-48.88 z M 907.46,897.38141 c 0.23101,-0.0924 0.50701,-0.0811 0.61334,0.0253 0.10634,0.10633 -0.0827,0.18198 -0.42,0.16809 -0.3728,-0.0154 -0.4486,-0.0912 -0.19334,-0.19334 z M 980.95795,800 c 0,-53.768 0.0369,-75.764 0.082,-48.88 0.0451,26.884 0.0451,70.876 0,97.76 -0.0451,26.884 -0.082,4.888 -0.082,-48.88 z M 910.66,897.06141 c 0.23101,-0.0924 0.50701,-0.0811 0.61334,0.0253 0.10634,0.10633 -0.0827,0.18198 -0.42,0.16809 -0.3728,-0.0154 -0.4486,-0.0912 -0.19334,-0.19334 z M 319.34277,891.92 l -1.10277,-1.2 1.2,1.10278 c 0.66,0.60653 1.2,1.14653 1.2,1.2 0,0.24436 -0.27078,0.0141 -1.29723,-1.10278 z m 1089.75713,-0.16 -0.9399,-1.04 1.04,0.93987 c 0.572,0.51693 1.04,0.98493 1.04,1.04 0,0.24723 -0.264,0.0294 -1.1401,-0.93987 z M 608.47603,836 c 0,-27.456 0.0378,-38.64067 0.0839,-24.85482 0.0462,13.78583 0.0462,36.24983 0,49.92 -0.0462,13.67015 -0.0839,2.39082 -0.0839,-25.06518 z m 135.35683,7.2 c 0,-14.872 0.0392,-20.956 0.087,-13.52 0.0479,7.436 0.0479,19.604 0,27.04 -0.0479,7.436 -0.087,1.352 -0.087,-13.52 z m 106.56426,-7.59997 0.003,-25.52003 20.16,-0.004 20.16,-0.004 -20.07808,0.086 -20.07808,0.086 -0.0848,25.43763 -0.0848,25.43763 0.003,-25.52 z M 893.38,860.90141 c 0.23101,-0.0925 0.50701,-0.0811 0.61334,0.0253 0.10634,0.10633 -0.0827,0.18198 -0.42,0.16809 -0.3728,-0.0154 -0.4486,-0.0912 -0.19334,-0.19334 z M 786.38627,844.8 c 0,-7.304 0.042,-10.292 0.0934,-6.64 0.0513,3.652 0.0513,9.628 0,13.28 -0.0514,3.652 -0.0934,0.664 -0.0934,-6.64 z M 914.24,853.33987 c 0,-0.0551 0.468,-0.52307 1.04,-1.04 l 1.04,-0.93987 -0.93987,1.04 c -0.8761,0.96944 -1.14013,1.1871 -1.14013,0.93987 z m 53.78525,-8.08653 c 0.0154,-0.3728 0.0912,-0.4486 0.19334,-0.19334 0.0925,0.23101 0.0811,0.50701 -0.0253,0.61334 -0.10633,0.10634 -0.18198,-0.0827 -0.16809,-0.42 z m 0.39974,-6.69334 c 0,-1.232 0.0593,-1.6968 0.12855,-1.03286 0.0693,0.66393 0.0681,1.67193 -0.003,2.24 -0.0707,0.56806 -0.12736,0.025 -0.12596,-1.20714 z m -0.39974,-6.74666 c 0.0154,-0.3728 0.0912,-0.4486 0.19334,-0.19334 0.0925,0.23101 0.0811,0.50701 -0.0253,0.61334 -0.10633,0.10634 -0.18198,-0.0827 -0.16809,-0.42 z M 529.6,822.59917 c 0,-0.0664 0.252,-0.31843 0.56,-0.56 0.50755,-0.39802 0.51885,-0.38672 0.12083,0.12083 -0.41805,0.53302 -0.68083,0.70256 -0.68083,0.43917 z M 915.17578,818.96 914.4,818.08 l 0.88,0.77578 c 0.8225,0.72508 1.02675,0.98422 0.77578,0.98422 -0.0573,0 -0.45332,-0.396 -0.88,-0.88 z M 533.44,818.75917 c 0,-0.0664 0.252,-0.31843 0.56,-0.56 0.50755,-0.39802 0.51885,-0.38672 0.12083,0.12083 -0.41805,0.53302 -0.68083,0.70256 -0.68083,0.43917 z m 142.91296,-9.10583 c -0.0907,-0.14668 0.0385,-0.26668 0.28704,-0.26668 0.24851,0 0.3777,0.12 0.28704,0.26668 -0.0907,0.14666 -0.21981,0.26666 -0.28704,0.26666 -0.0672,0 -0.19638,-0.12 -0.28704,-0.26666 z M 466.32,807.13942 c 0.308,-0.0805 0.812,-0.0805 1.12,0 0.308,0.0805 0.056,0.14634 -0.56,0.14634 -0.616,0 -0.868,-0.0659 -0.56,-0.14634 z m 4.66,-0.31801 c 0.23101,-0.0924 0.50701,-0.0811 0.61334,0.0253 0.10634,0.10633 -0.0827,0.18198 -0.42,0.16809 -0.3728,-0.0154 -0.4486,-0.0912 -0.19334,-0.19334 z m 417.6,-22.08 c 0.23101,-0.0924 0.50701,-0.0811 0.61334,0.0253 0.10634,0.10633 -0.0827,0.18198 -0.42,0.16809 -0.3728,-0.0154 -0.4486,-0.0912 -0.19334,-0.19334 z m -338.79475,-3.48807 c 0.0154,-0.3728 0.0912,-0.4486 0.19334,-0.19334 0.0924,0.23101 0.0811,0.50701 -0.0253,0.61334 -0.10633,0.10634 -0.18198,-0.0827 -0.16809,-0.42 z M 550.1607,776.48 c 0.004,-0.704 0.0691,-0.95434 0.14564,-0.55626 0.0765,0.39805 0.0736,0.97405 -0.006,1.28 -0.0801,0.30592 -0.14272,-0.0198 -0.13917,-0.72374 z m 0,-6.4 c 0.004,-0.704 0.0691,-0.95434 0.14564,-0.55626 0.0765,0.39805 0.0736,0.97405 -0.006,1.28 -0.0801,0.30592 -0.14272,-0.0198 -0.13917,-0.72374 z m 409.22455,-5.46666 c 0.0154,-0.3728 0.0912,-0.4486 0.19334,-0.19334 0.0924,0.23101 0.0811,0.50701 -0.0253,0.61334 -0.10633,0.10634 -0.18198,-0.0827 -0.16809,-0.42 z m -44.16,-0.64 c 0.0154,-0.3728 0.0912,-0.4486 0.19334,-0.19334 0.0924,0.23101 0.0811,0.50701 -0.0253,0.61334 -0.10633,0.10634 -0.18198,-0.0827 -0.16809,-0.42 z M 959.78499,758.24 c 0,-1.232 0.0593,-1.6968 0.12855,-1.03286 0.0693,0.66393 0.0681,1.67193 -0.003,2.24 -0.0707,0.56806 -0.12736,0.025 -0.12596,-1.20714 z m -702.7389,-3.90176 c 0.31135,-0.0811 0.74335,-0.0758 0.96,0.0118 0.21665,0.0876 -0.0381,0.15402 -0.56609,0.14752 -0.528,-0.006 -0.70526,-0.0782 -0.39391,-0.15939 z m 890.88001,0 c 0.3113,-0.0811 0.7433,-0.0758 0.96,0.0118 0.2167,0.0876 -0.038,0.15402 -0.5661,0.14752 -0.528,-0.006 -0.7052,-0.0782 -0.3939,-0.15939 z M 786.06614,740.32 c -9e-5,-7.216 0.042,-10.21363 0.0934,-6.66144 0.0515,3.55222 0.0515,9.45622 1.6e-4,13.12 -0.0514,3.66381 -0.0935,0.75744 -0.0936,-6.45856 z m 173.31911,11.17334 c 0.0154,-0.3728 0.0912,-0.4486 0.19334,-0.19334 0.0924,0.23101 0.0811,0.50701 -0.0253,0.61334 -0.10633,0.10634 -0.18198,-0.0827 -0.16809,-0.42 z m -492.09917,-12.1951 c 0.31136,-0.0811 0.74336,-0.0758 0.96,0.0118 0.21667,0.0877 -0.0381,0.15402 -0.56608,0.14752 -0.528,-0.006 -0.70525,-0.0782 -0.39392,-0.15939 z M 888.58,738.98141 c 0.23101,-0.0924 0.50701,-0.0811 0.61334,0.0253 0.10634,0.10633 -0.0827,0.18198 -0.42,0.16809 -0.3728,-0.0154 -0.4486,-0.0912 -0.19334,-0.19334 z m -410.24,-36.16 c 0.23101,-0.0924 0.50701,-0.0811 0.61334,0.0253 0.10634,0.10633 -0.0827,0.18198 -0.42,0.16809 -0.3728,-0.0154 -0.4486,-0.0912 -0.19334,-0.19334 z m 427.2,0 c 0.23101,-0.0924 0.50701,-0.0811 0.61334,0.0253 0.10634,0.10633 -0.0827,0.18198 -0.42,0.16809 -0.3728,-0.0154 -0.4486,-0.0912 -0.19334,-0.19334 z m -431.38,-0.31335 c 0.22,-0.0888 0.58,-0.0888 0.8,0 0.22,0.0888 0.04,0.16141 -0.4,0.16141 -0.44,0 -0.62,-0.0726 -0.4,-0.16141 z m 428.18,-0.007 c 0.23101,-0.0924 0.50701,-0.0811 0.61334,0.0253 0.10634,0.10634 -0.0827,0.18199 -0.42,0.1681 -0.3728,-0.0154 -0.4486,-0.0912 -0.19334,-0.19334 z m -5.3,-0.32198 c 0.308,-0.0805 0.812,-0.0805 1.12,0 0.308,0.0805 0.056,0.14634 -0.56,0.14634 -0.616,0 -0.868,-0.0659 -0.56,-0.14634 z"
         id="path994" />
      <path
         style="fill:#f60f00;stroke-width:0.32"
         d="M 257.03225,891.14576 C 254.63482,886.90448 227.84,837.76912 227.84,837.61408 c 0,-0.0957 13.62,-0.17408 30.26667,-0.17408 16.64666,0 30.21866,0.12016 30.16,0.26704 -0.22346,0.55942 -29.81665,54.62605 -30.03771,54.87872 -0.12788,0.14618 -0.66639,-0.50182 -1.19671,-1.44 z m 876.49295,-25.9473 -15.0951,-27.59846 30.1167,-0.0816 c 16.5641,-0.0449 30.1835,-0.0147 30.2654,0.0672 0.1578,0.15772 -29.2189,54.13344 -29.8323,54.81292 -0.2743,0.30388 -3.9436,-6.15404 -15.4547,-27.2 z"
         id="path992" />
      <path
         style="fill:#3d3d3d;stroke-width:0.32"
         d="m 156.85741,897.68026 c 4.69558,-0.0498 12.47158,-0.0499 17.28,-7e-5 4.80843,0.0498 0.96659,0.0906 -8.53741,0.0906 -9.504,6e-5 -13.43816,-0.0407 -8.74259,-0.0906 z m 184.20531,-10e-5 c 4.98451,-0.0496 13.04851,-0.0496 17.92,10e-5 4.87152,0.0497 0.79328,0.0902 -9.06272,0.0902 -9.856,-6e-5 -13.84176,-0.0407 -8.85728,-0.0903 z m 51.04077,-6e-5 c 6.30493,-0.0485 16.52893,-0.0485 22.72,6e-5 6.19107,0.0486 1.03251,0.0883 -11.46349,0.0882 -12.496,0 -17.56144,-0.0397 -11.25651,-0.0883 z m 125.25651,3e-5 c 6.732,-0.0483 17.748,-0.0483 24.48,0 6.732,0.0482 1.224,0.0877 -12.24,0.0877 -13.464,0 -18.972,-0.0395 -12.24,-0.0877 z m 56.32,1.6e-4 c 4.268,-0.0504 11.252,-0.0504 15.52,0 4.268,0.0504 0.776,0.0916 -7.76,0.0916 -8.536,0 -12.028,-0.0412 -7.76,-0.0916 z m 189.41779,3e-5 c 4.25578,-0.0504 11.31178,-0.0504 15.68,-1e-4 4.36823,0.0503 0.88621,0.0915 -7.73779,0.0916 -8.624,6e-5 -12.19798,-0.0411 -7.94221,-0.0915 z M 829.2,897.68003 c 13.332,-0.0462 35.148,-0.0462 48.48,0 13.332,0.0462 2.424,0.0841 -24.24,0.0841 -26.664,0 -37.572,-0.0378 -24.24,-0.0841 z m 163.22349,7e-5 c 6.30493,-0.0485 16.52891,-0.0485 22.72001,6e-5 6.1911,0.0486 1.0325,0.0883 -11.4635,0.0882 -12.496,0 -17.56144,-0.0397 -11.25651,-0.0883 z m 46.61641,-1e-4 c -2e-4,-0.21792 13.0178,-0.21424 28.6401,0.008 3.344,0.0476 -1.732,0.11923 -11.28,0.1592 -9.548,0.04 -17.3601,-0.0353 -17.3601,-0.16733 z m 192.7201,2.2e-4 c 4.884,-0.0497 12.876,-0.0497 17.76,0 4.884,0.0497 0.888,0.0903 -8.88,0.0903 -9.768,0 -13.764,-0.0407 -8.88,-0.0903 z m 40.068,-0.16022 c -0.083,-0.22 -0.115,-44.248 -0.07,-97.84 l 0.082,-97.44 18.88,-0.004 18.88,-0.004 -18.8,0.0865 -18.8,0.0865 v 97.59481 97.59482 l 18.32,0.0853 18.32,0.0853 -18.33,0.0773 c -14.427,0.0608 -18.3624,-0.008 -18.482,-0.32269 z m 157.692,0.16032 c 4.004,-0.0508 10.556,-0.0508 14.56,0 4.004,0.0507 0.728,0.0923 -7.28,0.0923 -8.008,0 -11.284,-0.0416 -7.28,-0.0923 z M 906.5,897.38141 c 0.23101,-0.0924 0.50701,-0.0811 0.61334,0.0253 0.10634,0.10633 -0.0827,0.18198 -0.42,0.16809 -0.3728,-0.0154 -0.4486,-0.0912 -0.19334,-0.19334 z m 406.78,-1.82224 c 0,-0.0664 0.252,-0.31843 0.56,-0.56 0.5076,-0.39802 0.5188,-0.38672 0.1208,0.12083 -0.418,0.53302 -0.6808,0.70256 -0.6808,0.43917 z M 747.47917,893.84 c -0.39802,-0.50755 -0.38672,-0.51885 0.12083,-0.12083 0.53302,0.41805 0.70256,0.68083 0.43917,0.68083 -0.0664,0 -0.31843,-0.252 -0.56,-0.56 z M 194.56,892.69987 c 0,-0.0551 0.468,-0.52307 1.04,-1.04 l 1.04,-0.93987 -0.93987,1.04 c -0.87609,0.96944 -1.14013,1.1871 -1.14013,0.93987 z M 786.38614,870.88 c -9e-5,-7.216 0.042,-10.21363 0.0934,-6.66144 0.0515,3.55222 0.0515,9.45622 1.6e-4,13.12 -0.0514,3.66381 -0.0935,0.75744 -0.0936,-6.45856 z M 860.08,861.20016 c 5.5,-0.0491 14.5,-0.0491 20,0 5.5,0.0491 1,0.0893 -10,0.0893 -11,0 -15.5,-0.0402 -10,-0.0893 z m 107.94525,-16.90682 c 0.0154,-0.3728 0.0912,-0.4486 0.19334,-0.19334 0.0925,0.23101 0.0811,0.50701 -0.0253,0.61334 -0.10633,0.10634 -0.18198,-0.0827 -0.16809,-0.42 z M 436.24,843.28016 c 5.764,-0.0489 15.196,-0.0489 20.96,0 5.764,0.0489 1.048,0.0889 -10.48,0.0889 -11.528,0 -16.244,-0.04 -10.48,-0.0889 z M 921.99424,835.2 c 0,-0.616 0.0659,-0.868 0.14634,-0.56 0.0805,0.308 0.0805,0.812 0,1.12 -0.0805,0.308 -0.14634,0.056 -0.14634,-0.56 z m 46.03101,-2.42666 c 0.0154,-0.3728 0.0912,-0.4486 0.19334,-0.19334 0.0925,0.23101 0.0811,0.50701 -0.0253,0.61334 -0.10633,0.10634 -0.18198,-0.0827 -0.16809,-0.42 z M 531.82662,820.4 c 1.32608,-1.41286 1.61338,-1.66691 1.61338,-1.42662 0,0.0514 -0.684,0.73536 -1.52,1.52 L 530.4,821.92 Z m 384.61255,-0.16 c -0.39802,-0.50755 -0.38672,-0.51885 0.12083,-0.12083 0.53302,0.41805 0.70256,0.68083 0.43917,0.68083 -0.0664,0 -0.31843,-0.252 -0.56,-0.56 z m 489.45023,0.19056 c -0.1412,-0.22861 -0.088,-0.28259 0.1403,-0.14163 0.2775,0.17149 0.3886,-14.38663 0.4494,-58.91056 l 0.081,-59.13837 22.24,-0.003 22.24,-0.003 -22.16,0.0854 -22.16,0.0854 v 59.19782 c 0,36.77668 -0.114,59.19783 -0.3011,59.19783 -0.1656,0 -0.4039,-0.16624 -0.5295,-0.36944 z M 743.82861,800.16 c -7e-5,-8.976 0.0409,-12.69408 0.0911,-8.26237 0.0502,4.43171 0.0502,11.77571 10e-5,16.32 -0.0501,4.54429 -0.0911,0.91837 -0.0912,-8.05763 z M 891.12,810.02806 c 0.22,-0.0888 0.58,-0.0888 0.8,0 0.22,0.0888 0.04,0.16141 -0.4,0.16141 -0.44,0 -0.62,-0.0726 -0.4,-0.16141 z M 468.1,807.14141 c 0.23101,-0.0924 0.50701,-0.0811 0.61334,0.0253 0.10634,0.10633 -0.0827,0.18198 -0.42,0.16809 -0.3728,-0.0154 -0.4486,-0.0912 -0.19334,-0.19334 z m 391.04272,-22.10125 c 4.98451,-0.0496 13.04851,-0.0496 17.92,10e-5 4.87152,0.0497 0.79328,0.0902 -9.06272,0.0902 -9.856,-6e-5 -13.84176,-0.0407 -8.85728,-0.0903 z M 889.54,784.74141 c 0.23101,-0.0924 0.50701,-0.0811 0.61334,0.0253 0.10634,0.10633 -0.0827,0.18198 -0.42,0.16809 -0.3728,-0.0154 -0.4486,-0.0912 -0.19334,-0.19334 z m 427.26,-0.22224 c 0,-0.0664 0.252,-0.31843 0.56,-0.56 0.5076,-0.39802 0.5188,-0.38672 0.1208,0.12083 -0.418,0.53302 -0.6808,0.70256 -0.6808,0.43917 z M 786.06627,766.4 c 0,-7.304 0.042,-10.292 0.0934,-6.64 0.0513,3.652 0.0513,9.628 0,13.28 -0.0514,3.652 -0.0934,0.664 -0.0934,-6.64 z m -281.63657,6.88 c 0,-1.408 0.0574,-1.94419 0.12502,-1.19155 0.0676,0.75267 0.0667,1.90467 -0.003,2.56 -0.0688,0.65536 -0.12406,0.0395 -0.12291,-1.36845 z m 45.75529,0 c 0,-1.232 0.0593,-1.6968 0.12855,-1.03286 0.0693,0.66393 0.0681,1.67193 -0.003,2.24 -0.0707,0.56806 -0.12736,0.025 -0.12596,-1.20714 z m -0.39974,-7.38666 c 0.0154,-0.3728 0.0912,-0.4486 0.19334,-0.19334 0.0924,0.23101 0.0811,0.50701 -0.0253,0.61334 -0.10633,0.10634 -0.18198,-0.0827 -0.16809,-0.42 z m 409.6,-2.24 c 0.0154,-0.3728 0.0912,-0.4486 0.19334,-0.19334 0.0924,0.23101 0.0811,0.50701 -0.0253,0.61334 -0.10633,0.10634 -0.18198,-0.0827 -0.16809,-0.42 z M 260.75918,755.6 c -0.39804,-0.50755 -0.38672,-0.51885 0.12082,-0.12083 0.308,0.24157 0.56,0.49357 0.56,0.56 0,0.26339 -0.26278,0.0938 -0.68082,-0.43917 z m 698.62607,-3.14666 c 0.0154,-0.3728 0.0912,-0.4486 0.19334,-0.19334 0.0924,0.23101 0.0811,0.50701 -0.0253,0.61334 -0.10633,0.10634 -0.18198,-0.0827 -0.16809,-0.42 z M 468.74,739.30141 c 0.23101,-0.0924 0.50701,-0.0811 0.61334,0.0253 0.10634,0.10633 -0.0827,0.18198 -0.42,0.16809 -0.3728,-0.0154 -0.4486,-0.0912 -0.19334,-0.19334 z m 390.22,-0.66119 c 4.884,-0.0497 12.876,-0.0497 17.76,0 4.884,0.0497 0.888,0.0903 -8.88,0.0903 -9.768,0 -13.764,-0.0407 -8.88,-0.0903 z M 946.83917,722.32 c -0.39802,-0.50755 -0.38672,-0.51885 0.12083,-0.12083 0.53302,0.41805 0.70256,0.68083 0.43917,0.68083 -0.0664,0 -0.31843,-0.252 -0.56,-0.56 z m -3.84,-3.84 c -0.39802,-0.50755 -0.38672,-0.51885 0.12083,-0.12083 0.53302,0.41805 0.70256,0.68083 0.43917,0.68083 -0.0664,0 -0.31843,-0.252 -0.56,-0.56 z M 477.38,702.82141 c 0.23101,-0.0924 0.50701,-0.0811 0.61334,0.0253 0.10634,0.10633 -0.0827,0.18198 -0.42,0.16809 -0.3728,-0.0154 -0.4486,-0.0912 -0.19334,-0.19334 z m -241.90589,-0.50362 c 0.13325,-0.13318 10.31409,-0.20515 22.62409,-0.15993 l 22.3818,0.0823 -22.62408,0.15993 c -12.44324,0.088 -22.51506,0.0509 -22.38181,-0.0823 z m 237.25197,0.18045 c 0.31136,-0.0811 0.74336,-0.0758 0.96,0.0118 0.21667,0.0876 -0.0381,0.15402 -0.56608,0.14752 -0.528,-0.006 -0.70525,-0.0782 -0.39392,-0.15939 z m 428.65392,0.003 c 0.23101,-0.0924 0.50701,-0.0811 0.61334,0.0253 0.10634,0.10634 -0.0827,0.18198 -0.42,0.1681 -0.3728,-0.0154 -0.4486,-0.0912 -0.19334,-0.19335 z m -325.91709,-0.34125 c 5.24858,-0.0494 13.74458,-0.0493 18.88,7e-5 5.13539,0.0494 0.84109,0.0898 -9.54291,0.0898 -10.384,-7e-5 -14.5857,-0.0405 -9.33709,-0.0898 z M 758,702.16022 c 5.148,-0.0494 13.572,-0.0494 18.72,0 5.148,0.0494 0.936,0.0899 -9.36,0.0899 -10.296,0 -14.508,-0.0405 -9.36,-0.0899 z m 69.92,-1.6e-4 c 12.628,-0.0463 33.292,-0.0463 45.92,0 12.628,0.0463 2.296,0.0843 -22.96,0.0843 -25.256,0 -35.588,-0.0379 -22.96,-0.0843 z m 164.50349,7e-5 c 6.30493,-0.0485 16.52891,-0.0485 22.72001,6e-5 6.1911,0.0486 1.0325,0.0883 -11.4635,0.0882 -12.496,0 -17.56144,-0.0398 -11.25651,-0.0883 z m 144.77651,3e-5 c 6.204,-0.0486 16.356,-0.0486 22.56,0 6.204,0.0486 1.128,0.0883 -11.28,0.0883 -12.408,0 -17.484,-0.0397 -11.28,-0.0883 z"
         id="path990" />
      <path
         style="fill:#000000;stroke-width:0.32"
         d="m 149.61521,895.12 c 0.61099,-1.364 20.16876,-45.248 43.46171,-97.52 l 42.35082,-95.04 h 22.47713 22.47713 l 43.57707,97.44 43.57709,97.44 -18.39005,0.0826 c -15.54176,0.0698 -18.69021,0.008 -20.32809,-0.40121 -4.64128,-1.15872 -9.45157,-4.60903 -11.94283,-8.56631 -0.76287,-1.2118 -11.78575,-27.43625 -28.07586,-66.7951 -14.75093,-35.64 -27.03525,-65.13229 -27.29848,-65.53843 -0.6217,-0.9592 -2.64405,-1.98157 -3.91974,-1.98157 -1.34722,0 -3.05991,0.84973 -3.7882,1.87946 -0.32697,0.4623 -12.72551,30.00054 -27.5523,65.64054 -14.82679,35.64 -27.32869,65.448 -27.782,66.24 -1.44515,2.5249 -5.36452,6.1552 -8.05861,7.46422 -4.42745,2.1513 -4.25282,2.13578 -24.05508,2.13578 H 148.50431 Z M 380.8,800 v -97.6 h 44.82003 c 46.08032,0 50.14442,0.091 58.69997,1.31392 28.28992,4.04384 49.34739,17.81469 59.40093,38.84608 2.95507,6.18186 5.19235,14.35107 6.02163,21.98739 0.43395,3.99623 0.43395,13.46899 0,17.46522 -1.6888,15.55129 -7.93229,28.64195 -18.58352,38.96377 -5.23875,5.07677 -10.61766,8.83415 -17.47904,12.2098 -1.98,0.97411 -3.6,1.81424 -3.6,1.86694 0,0.0689 36.64029,52.68131 42.94602,61.66688 l 0.61756,0.88 -24.26179,-0.017 -24.26179,-0.017 -18.72563,-27.10307 -18.72563,-27.10311 -20.87437,-0.0823 -20.87437,-0.0823 v 27.20234 27.2023 H 403.36 380.8 v -97.6 z m 93.6,6.63981 c 7.05235,-1.33933 12.17174,-3.20963 16.35235,-5.97415 2.5632,-1.69494 6.10608,-4.92432 7.75635,-7.06992 2.26336,-2.94272 4.30669,-7.66336 5.25981,-12.15148 0.93683,-4.4114 0.90983,-12.02676 -0.059,-16.64426 -1.18425,-5.64397 -3.48934,-10.28733 -6.99558,-14.09174 -5.07002,-5.50122 -11.61079,-8.721 -21.83389,-10.74804 -2.35718,-0.46736 -5.80406,-0.55657 -25.84,-0.66883 l -23.12,-0.1295 v 34.1199 34.11994 l 22.96,-0.13789 c 18.76675,-0.11267 23.42755,-0.22666 25.52,-0.62403 z m 91.68,-6.63139 V 702.4 h 18.68675 18.68675 l 36.47792,53.68 c 20.06288,29.524 36.59357,53.66256 36.73488,53.64122 0.14132,-0.0214 16.39322,-24.17268 36.11533,-53.6697 l 35.85837,-53.63091 18.60042,-0.0102 18.60041,-0.0102 0.19386,77.36 c 0.10662,42.548 0.26896,86.47293 0.3608,97.61097 l 0.16694,20.25095 -16.56854,-0.0909 -16.56855,-0.091 -2.12761,-1.04771 c -3.43258,-1.69034 -6.108,-5.0624 -6.96531,-8.77904 -0.2018,-0.87476 -0.31962,-19.9074 -0.32461,-52.4321 -0.008,-54.06157 0.0374,-52.38864 -1.42285,-52.09594 -0.3735,0.0748 -9.5112,15.14202 -26.26886,43.31479 -27.41412,46.08825 -27.24343,45.82393 -30.99783,48.0032 -5.85693,3.39968 -12.59977,3.50429 -18.35683,0.28473 -4.21875,-2.35926 -3.61642,-1.4542 -31.26982,-46.98576 -23.91517,-39.37648 -25.64148,-42.12531 -26.4,-42.03683 l -0.81162,0.0947 -0.16,51.20685 -0.16,51.20684 -1.05501,2.14288 c -1.34409,2.73015 -3.50102,4.88468 -6.14406,6.13725 l -2.08093,0.98618 -16.4,0.0884 -16.4,0.0884 v -97.60842 z m 239.04,-0.009 v -97.61888 l 49.36,0.10028 c 48.80125,0.0992 49.40765,0.10813 53.57002,0.79056 22.9167,3.75725 38.74934,14.16941 46.50742,30.58506 3.49674,7.39891 5.12256,15.08707 5.12256,24.22342 0,13.43738 -3.8865,25.09207 -11.18336,33.5362 l -2.23459,2.58598 2.62896,1.83453 c 8.92195,6.22585 15.70912,17.15369 18.13005,29.19069 3.272,16.2688 0.43468,33.33737 -7.50909,45.1726 -9.58618,14.28218 -24.49869,22.79245 -46.07197,26.29236 l -4.48,0.72678 -51.92,0.0996 -51.92,0.0996 z m 91.98819,60.68764 c 4.73136,-0.78953 7.64515,-1.67452 11.21181,-3.40528 3.68134,-1.78636 6.36506,-3.843 8.57286,-6.56966 5.87869,-7.26026 6.85856,-19.10419 2.23562,-27.02205 -3.12826,-5.35779 -8.92531,-9.58147 -16.23005,-11.82509 -5.44627,-1.67276 -6.44246,-1.73395 -30.33843,-1.86345 l -22.32,-0.12093 v 25.80634 25.80633 l 21.84,-0.13709 c 18.41318,-0.11558 22.34026,-0.22057 25.02819,-0.66912 z M 892.32,784.54746 c 8.12912,-1.52167 12.61629,-3.65162 17.01274,-8.07565 2.15264,-2.16611 2.86643,-3.1577 4.05305,-5.63047 1.64784,-3.43382 2.13655,-5.43046 2.12864,-8.69708 -0.0128,-5.2976 -2.00899,-10.36032 -5.62505,-14.26602 -4.39978,-4.75219 -9.36304,-7.1535 -17.72938,-8.57789 -2.49667,-0.42505 -6.51443,-0.54237 -22.48,-0.65648 l -19.44,-0.13891 v 23.41638 23.41639 L 870,785.18218 c 15.67872,-0.12343 20.28874,-0.25453 22.32,-0.63472 z M 981.12,800 v -97.6 h 22.56 22.56 v 97.6 97.6 h -22.56 -22.56 z m 58.24,97.39261 c 0,-0.11405 19.5327,-44.03405 43.406,-97.6 l 43.4061,-97.39261 22.4339,0.009 22.434,0.009 43.5846,97.51091 43.5846,97.51095 -17.9846,0.0941 c -12.1839,0.0637 -18.6039,-0.0202 -19.9046,-0.26058 -1.056,-0.19507 -3.2486,-0.99494 -4.8724,-1.77754 -3.672,-1.76963 -6.7162,-4.64598 -8.4624,-7.99568 -0.6366,-1.22115 -12.8503,-30.44428 -27.1416,-64.94028 -14.2914,-34.496 -26.353,-63.55402 -26.8037,-64.57338 -0.4506,-1.01936 -1.2332,-2.20163 -1.739,-2.62726 -1.8229,-1.53383 -4.7597,-1.35328 -6.4011,0.3935 -0.5594,0.5953 -9.7657,22.35978 -27.9867,66.16333 -29.649,71.27645 -28.1545,67.97021 -32.1955,71.22189 -1.0134,0.81539 -2.7537,1.92681 -3.8673,2.46979 -4.075,1.98691 -4.1371,1.99213 -23.6965,1.99213 -9.7866,0 -17.7938,-0.0933 -17.7938,-0.2074 z M 1272,800 v -97.6 h 18.6829 18.683 l 48.3863,59.12 c 26.6125,32.516 48.5171,59.168 48.677,59.22666 0.1737,0.0637 0.2908,-23.74282 0.2908,-59.12 V 702.4 h 22.24 22.24 v 97.6 97.6 h -15.1328 c -16.9242,0 -16.9857,-0.006 -21.5448,-2.23766 -1.719,-0.84132 -3.3092,-1.94964 -4.7017,-3.27684 -1.1573,-1.103 -21.42,-25.5495 -45.0284,-54.3255 -23.6084,-28.776 -43.431,-52.80314 -44.0503,-53.3936 -0.948,-0.90397 -1.2846,-1.04189 -2.1297,-0.87286 -2.1384,0.42768 -1.9561,-4.2194 -2.1323,54.35785 -0.1506,50.05456 -0.1934,53.25975 -0.7273,54.39575 -0.8648,1.84019 -2.7752,3.77046 -4.5527,4.59996 l -1.6,0.74666 -18.8,0.003 -18.8,0.003 v -97.6 z"
         id="path988" />
    </g>
  </g>
</svg>
